<svg width="24.000000000000004" height="24.000000000000004" xmlns="http://www.w3.org/2000/svg">
    <g>
        <title>background</title>
        <rect fill="none" id="canvas_background" height="602" width="802" y="-1" x="-1"/>
    </g>
    <g>
        <title>Layer 1</title>
        <path id="svg_1" fill="none" d="m0,0l24,0l0,24l-24,0l0,-24z"/>
        <path id="svg_2"
              d="m19,3l-14,0c-1.11,0 -2,0.9 -2,2l0,14c0,1.1 0.89,2 2,2l14,0c1.1,0 2,-0.9 2,-2l0,-14c0,-1.1 -0.9,-2 -2,-2zm-2,10l-4,0l0,4l-2,0l0,-4l-4,0l0,-2l4,0l0,-4l2,0l0,4l4,0l0,2z"/>
        <rect stroke="null" id="svg_8" height="5.23311" width="10.65423" y="5.75317" x="6.65722" fill-opacity="null"
              stroke-opacity="null" stroke-width="null" fill="null"/>
        <rect stroke="null" id="svg_10" height="5.32712" width="10.93626" y="12.99178" x="6.62588" fill-opacity="null"
              stroke-opacity="null" stroke-width="null" fill="null"/>
    </g>
</svg>