<svg height='100px' width='100px'  fill="#000000" xmlns="http://www.w3.org/2000/svg" viewBox="0 0 32 32" x="0px" y="0px"><title>terminal, coding, linux,computing,development,</title><g data-name="Layer 19"><path d="M9,21a1,1,0,0,1-.8-.39,1,1,0,0,1,.19-1.41L12.6,16,8.39,12.8a1,1,0,1,1,1.22-1.6l5.25,4a1,1,0,0,1,0,1.6l-5.25,4A1.08,1.08,0,0,1,9,21Zm15-1a1,1,0,0,0-1-1H16.88a1,1,0,1,0,0,2H23A1,1,0,0,0,24,20Zm6,2.69V9.31A3.32,3.32,0,0,0,26.69,6H5.31A3.32,3.32,0,0,0,2,9.31V22.69A3.32,3.32,0,0,0,5.31,26H26.69A3.32,3.32,0,0,0,30,22.69ZM26.69,8A1.31,1.31,0,0,1,28,9.31V22.69A1.31,1.31,0,0,1,26.69,24H5.31A1.31,1.31,0,0,1,4,22.69V9.31A1.31,1.31,0,0,1,5.31,8Z"></path></g></svg>