<svg xmlns="http://www.w3.org/2000/svg" xmlns:xlink="http://www.w3.org/1999/xlink" width="100" height="100" viewBox="0 0 100 100"><circle stroke="none" fill="#F3F3F3" r="48%" cx="50%" cy="50%"></circle><g transform="translate(50 50) scale(0.69 0.69) rotate(0) translate(-50 -50)" style="fill:#68B4FF"><svg fill="#68B4FF" xmlns="http://www.w3.org/2000/svg" xmlns:xlink="http://www.w3.org/1999/xlink" version="1.1" x="0px" y="0px" viewBox="0 0 64 64" style="enable-background:new 0 0 64 64;" xml:space="preserve"><path d="M7,41v10v6c0,2.757,2.243,5,5,5h40c2.757,0,5-2.243,5-5v-6V41V31v-8.101c2.279-0.465,4-2.484,4-4.899v-4  c0-0.055-0.023-0.102-0.031-0.154c-0.006-0.036,0.006-0.073-0.004-0.109l-3-11C57.846,2.302,57.451,2,57,2H7  C6.549,2,6.154,2.302,6.035,2.737l-3,11c-0.01,0.036,0.002,0.072-0.004,0.109C3.023,13.898,3,13.946,3,14v4  c0,2.414,1.721,4.434,4,4.899V31V41z M9,22.899c1.226-0.25,2.278-0.96,3-1.93C12.912,22.194,14.359,23,16,23s3.088-0.806,4-2.031  C20.912,22.194,22.359,23,24,23s3.088-0.806,4-2.031C28.912,22.194,30.359,23,32,23s3.088-0.806,4-2.031  C36.912,22.194,38.359,23,40,23s3.088-0.806,4-2.031C44.912,22.194,46.359,23,48,23s3.088-0.806,4-2.031  c0.722,0.97,1.774,1.68,3,1.93V30H9V22.899z M51,18c0,1.654-1.346,3-3,3s-3-1.346-3-3v-3h6V18z M43,18c0,1.654-1.346,3-3,3  s-3-1.346-3-3v-3h6V18z M35,18c0,1.654-1.346,3-3,3s-3-1.346-3-3v-3h6V18z M27,18c0,1.654-1.346,3-3,3s-3-1.346-3-3v-3h6V18z M51,13  h-6V4h6V13z M43,13h-6V4h6V13z M35,13h-6V4h6V13z M27,13h-6V4h6V13z M19,13h-6V4h6V13z M13,15h6v3c0,1.654-1.346,3-3,3s-3-1.346-3-3  V15z M9,42h46v8H9V42z M9,32h46v8H9V32z M55,57c0,1.654-1.346,3-3,3H12c-1.654,0-3-1.346-3-3v-5h46V57z M59,18c0,1.654-1.346,3-3,3  s-3-1.346-3-3v-3h6V18z M58.691,13H53V4h3.236L58.691,13z M7.764,4H11v9H5.309L7.764,4z M5,18v-3h6v3c0,1.654-1.346,3-3,3  S5,19.654,5,18z"></path><rect x="16" y="55" width="24" height="2"></rect><rect x="50" y="55" width="2" height="2"></rect><rect x="46" y="55" width="2" height="2"></rect><rect x="12" y="55" width="2" height="2"></rect><rect x="16" y="45" width="24" height="2"></rect><rect x="50" y="45" width="2" height="2"></rect><rect x="46" y="45" width="2" height="2"></rect><rect x="12" y="45" width="2" height="2"></rect><rect x="16" y="35" width="24" height="2"></rect><rect x="50" y="35" width="2" height="2"></rect><rect x="46" y="35" width="2" height="2"></rect><rect x="12" y="35" width="2" height="2"></rect><rect x="16" y="25" width="24" height="2"></rect><rect x="50" y="25" width="2" height="2"></rect><rect x="46" y="25" width="2" height="2"></rect><rect x="12" y="25" width="2" height="2"></rect></svg></g></svg>